{
    "asset" : {
        "generator" : "Khronos glTF Blender I/O v3.2.43",
        "version" : "2.0"
    },
    "scene" : 0,
    "scenes" : [
        {
            "name" : "Scene",
            "nodes" : [
                0,
                4
            ]
        }
    ],
    "nodes" : [
        {
            "mesh" : 0,
            "name" : "Plane",
            "rotation" : [
                0.635570228099823,
                0.267709881067276,
                -0.2504148483276367,
                0.679466187953949
            ],
            "scale" : [
                13.873150825500488,
                13.851532936096191,
                7.634991645812988
            ],
            "translation" : [
                -7.3714094161987305,
                -1.9764093160629272,
                -2.739372730255127
            ]
        },
        {
            "name" : "Bone",
            "rotation" : [
                -3.774895418473534e-08,
                -1.7763564158837768e-15,
                -1.1518563880486e-15,
                1
            ],
            "scale" : [
                1,
                1,
                1.0000001192092896
            ],
            "translation" : [
                4.656839891481468e-08,
                -1.0587849885723699e-07,
                -5.138609093791047e-09
            ]
        },
        {
            "name" : "neutral_bone",
            "rotation" : [
                -0.7071068286895752,
                0,
                0,
                0.7071068286895752
            ]
        },
        {
            "mesh" : 1,
            "name" : "Sphere",
            "skin" : 0
        },
        {
            "children" : [
                3,
                1,
                2
            ],
            "name" : "Armature",
            "rotation" : [
                0,
                0,
                -0.9721980094909668,
                0.23416030406951904
            ],
            "scale" : [
                -0.488397479057312,
                -0.488397479057312,
                -0.488397479057312
            ],
            "translation" : [
                -0.029898345470428467,
                -0.6868736743927002,
                0.014889108017086983
            ]
        }
    ],
    "animations" : [
        {
            "channels" : [
                {
                    "sampler" : 0,
                    "target" : {
                        "node" : 0,
                        "path" : "translation"
                    }
                },
                {
                    "sampler" : 1,
                    "target" : {
                        "node" : 0,
                        "path" : "rotation"
                    }
                },
                {
                    "sampler" : 2,
                    "target" : {
                        "node" : 0,
                        "path" : "scale"
                    }
                }
            ],
            "name" : "PlaneAction.001",
            "samplers" : [
                {
                    "input" : 9,
                    "interpolation" : "STEP",
                    "output" : 10
                },
                {
                    "input" : 9,
                    "interpolation" : "STEP",
                    "output" : 11
                },
                {
                    "input" : 9,
                    "interpolation" : "STEP",
                    "output" : 12
                }
            ]
        },
        {
            "channels" : [
                {
                    "sampler" : 0,
                    "target" : {
                        "node" : 1,
                        "path" : "translation"
                    }
                },
                {
                    "sampler" : 1,
                    "target" : {
                        "node" : 1,
                        "path" : "rotation"
                    }
                },
                {
                    "sampler" : 2,
                    "target" : {
                        "node" : 1,
                        "path" : "scale"
                    }
                },
                {
                    "sampler" : 3,
                    "target" : {
                        "node" : 4,
                        "path" : "rotation"
                    }
                },
                {
                    "sampler" : 4,
                    "target" : {
                        "node" : 4,
                        "path" : "scale"
                    }
                },
                {
                    "sampler" : 5,
                    "target" : {
                        "node" : 4,
                        "path" : "translation"
                    }
                }
            ],
            "name" : "ArmatureAction",
            "samplers" : [
                {
                    "input" : 13,
                    "interpolation" : "LINEAR",
                    "output" : 14
                },
                {
                    "input" : 13,
                    "interpolation" : "LINEAR",
                    "output" : 15
                },
                {
                    "input" : 13,
                    "interpolation" : "LINEAR",
                    "output" : 16
                },
                {
                    "input" : 13,
                    "interpolation" : "LINEAR",
                    "output" : 17
                },
                {
                    "input" : 18,
                    "interpolation" : "LINEAR",
                    "output" : 19
                },
                {
                    "input" : 20,
                    "interpolation" : "LINEAR",
                    "output" : 21
                }
            ]
        },
        {
            "channels" : [
                {
                    "sampler" : 0,
                    "target" : {
                        "node" : 3,
                        "path" : "translation"
                    }
                },
                {
                    "sampler" : 1,
                    "target" : {
                        "node" : 3,
                        "path" : "rotation"
                    }
                },
                {
                    "sampler" : 2,
                    "target" : {
                        "node" : 3,
                        "path" : "scale"
                    }
                }
            ],
            "name" : "SphereAction",
            "samplers" : [
                {
                    "input" : 22,
                    "interpolation" : "STEP",
                    "output" : 23
                },
                {
                    "input" : 22,
                    "interpolation" : "STEP",
                    "output" : 24
                },
                {
                    "input" : 22,
                    "interpolation" : "STEP",
                    "output" : 25
                }
            ]
        }
    ],
    "materials" : [
        {
            "doubleSided" : true,
            "name" : "Material.003",
            "pbrMetallicRoughness" : {
                "baseColorFactor" : [
                    0.800000011920929,
                    0.800000011920929,
                    0.800000011920929,
                    1
                ],
                "metallicFactor" : 0,
                "roughnessFactor" : 0.5
            }
        },
        {
            "doubleSided" : true,
            "name" : "Material.001",
            "pbrMetallicRoughness" : {
                "baseColorFactor" : [
                    0.800000011920929,
                    0,
                    0.018859101459383965,
                    1
                ],
                "metallicFactor" : 0,
                "roughnessFactor" : 0.5
            }
        }
    ],
    "meshes" : [
        {
            "name" : "Plane.001",
            "primitives" : [
                {
                    "attributes" : {
                        "POSITION" : 0,
                        "NORMAL" : 1
                    },
                    "indices" : 2,
                    "material" : 0
                }
            ]
        },
        {
            "name" : "Sphere",
            "primitives" : [
                {
                    "attributes" : {
                        "POSITION" : 3,
                        "NORMAL" : 4,
                        "JOINTS_0" : 5,
                        "WEIGHTS_0" : 6
                    },
                    "indices" : 7,
                    "material" : 1
                }
            ]
        }
    ],
    "skins" : [
        {
            "inverseBindMatrices" : 8,
            "joints" : [
                1,
                2
            ],
            "name" : "Armature"
        }
    ],
    "accessors" : [
        {
            "bufferView" : 0,
            "componentType" : 5126,
            "count" : 4,
            "max" : [
                0.9999999403953552,
                0,
                0.9999999403953552
            ],
            "min" : [
                -1.0000001192092896,
                0,
                -1.0000003576278687
            ],
            "type" : "VEC3"
        },
        {
            "bufferView" : 1,
            "componentType" : 5126,
            "count" : 4,
            "type" : "VEC3"
        },
        {
            "bufferView" : 2,
            "componentType" : 5123,
            "count" : 6,
            "type" : "SCALAR"
        },
        {
            "bufferView" : 3,
            "componentType" : 5126,
            "count" : 1378,
            "max" : [
                -0.32176876068115234,
                4.238044738769531,
                1.1763646602630615
            ],
            "min" : [
                -2.7077267169952393,
                -0.042605943977832794,
                -0.48011964559555054
            ],
            "type" : "VEC3"
        },
        {
            "bufferView" : 4,
            "componentType" : 5126,
            "count" : 1378,
            "type" : "VEC3"
        },
        {
            "bufferView" : 5,
            "componentType" : 5121,
            "count" : 1378,
            "type" : "VEC4"
        },
        {
            "bufferView" : 6,
            "componentType" : 5126,
            "count" : 1378,
            "type" : "VEC4"
        },
        {
            "bufferView" : 7,
            "componentType" : 5123,
            "count" : 8256,
            "type" : "SCALAR"
        },
        {
            "bufferView" : 8,
            "componentType" : 5126,
            "count" : 2,
            "type" : "MAT4"
        },
        {
            "bufferView" : 9,
            "componentType" : 5126,
            "count" : 1,
            "max" : [
                5
            ],
            "min" : [
                5
            ],
            "type" : "SCALAR"
        },
        {
            "bufferView" : 10,
            "componentType" : 5126,
            "count" : 1,
            "type" : "VEC3"
        },
        {
            "bufferView" : 11,
            "componentType" : 5126,
            "count" : 1,
            "type" : "VEC4"
        },
        {
            "bufferView" : 12,
            "componentType" : 5126,
            "count" : 1,
            "type" : "VEC3"
        },
        {
            "bufferView" : 13,
            "componentType" : 5126,
            "count" : 172,
            "max" : [
                7.166666666666667
            ],
            "min" : [
                0.041666666666666664
            ],
            "type" : "SCALAR"
        },
        {
            "bufferView" : 14,
            "componentType" : 5126,
            "count" : 172,
            "type" : "VEC3"
        },
        {
            "bufferView" : 15,
            "componentType" : 5126,
            "count" : 172,
            "type" : "VEC4"
        },
        {
            "bufferView" : 16,
            "componentType" : 5126,
            "count" : 172,
            "type" : "VEC3"
        },
        {
            "bufferView" : 17,
            "componentType" : 5126,
            "count" : 172,
            "type" : "VEC4"
        },
        {
            "bufferView" : 18,
            "componentType" : 5126,
            "count" : 152,
            "max" : [
                7.166666666666667
            ],
            "min" : [
                0.875
            ],
            "type" : "SCALAR"
        },
        {
            "bufferView" : 19,
            "componentType" : 5126,
            "count" : 152,
            "type" : "VEC3"
        },
        {
            "bufferView" : 20,
            "componentType" : 5126,
            "count" : 133,
            "max" : [
                7.166666666666667
            ],
            "min" : [
                1.6666666666666667
            ],
            "type" : "SCALAR"
        },
        {
            "bufferView" : 21,
            "componentType" : 5126,
            "count" : 133,
            "type" : "VEC3"
        },
        {
            "bufferView" : 22,
            "componentType" : 5126,
            "count" : 1,
            "max" : [
                2.5416666666666665
            ],
            "min" : [
                2.5416666666666665
            ],
            "type" : "SCALAR"
        },
        {
            "bufferView" : 23,
            "componentType" : 5126,
            "count" : 1,
            "type" : "VEC3"
        },
        {
            "bufferView" : 24,
            "componentType" : 5126,
            "count" : 1,
            "type" : "VEC4"
        },
        {
            "bufferView" : 25,
            "componentType" : 5126,
            "count" : 1,
            "type" : "VEC3"
        }
    ],
    "bufferViews" : [
        {
            "buffer" : 0,
            "byteLength" : 48,
            "byteOffset" : 0
        },
        {
            "buffer" : 0,
            "byteLength" : 48,
            "byteOffset" : 48
        },
        {
            "buffer" : 0,
            "byteLength" : 12,
            "byteOffset" : 96
        },
        {
            "buffer" : 0,
            "byteLength" : 16536,
            "byteOffset" : 108
        },
        {
            "buffer" : 0,
            "byteLength" : 16536,
            "byteOffset" : 16644
        },
        {
            "buffer" : 0,
            "byteLength" : 5512,
            "byteOffset" : 33180
        },
        {
            "buffer" : 0,
            "byteLength" : 22048,
            "byteOffset" : 38692
        },
        {
            "buffer" : 0,
            "byteLength" : 16512,
            "byteOffset" : 60740
        },
        {
            "buffer" : 0,
            "byteLength" : 128,
            "byteOffset" : 77252
        },
        {
            "buffer" : 0,
            "byteLength" : 4,
            "byteOffset" : 77380
        },
        {
            "buffer" : 0,
            "byteLength" : 12,
            "byteOffset" : 77384
        },
        {
            "buffer" : 0,
            "byteLength" : 16,
            "byteOffset" : 77396
        },
        {
            "buffer" : 0,
            "byteLength" : 12,
            "byteOffset" : 77412
        },
        {
            "buffer" : 0,
            "byteLength" : 688,
            "byteOffset" : 77424
        },
        {
            "buffer" : 0,
            "byteLength" : 2064,
            "byteOffset" : 78112
        },
        {
            "buffer" : 0,
            "byteLength" : 2752,
            "byteOffset" : 80176
        },
        {
            "buffer" : 0,
            "byteLength" : 2064,
            "byteOffset" : 82928
        },
        {
            "buffer" : 0,
            "byteLength" : 2752,
            "byteOffset" : 84992
        },
        {
            "buffer" : 0,
            "byteLength" : 608,
            "byteOffset" : 87744
        },
        {
            "buffer" : 0,
            "byteLength" : 1824,
            "byteOffset" : 88352
        },
        {
            "buffer" : 0,
            "byteLength" : 532,
            "byteOffset" : 90176
        },
        {
            "buffer" : 0,
            "byteLength" : 1596,
            "byteOffset" : 90708
        },
        {
            "buffer" : 0,
            "byteLength" : 4,
            "byteOffset" : 92304
        },
        {
            "buffer" : 0,
            "byteLength" : 12,
            "byteOffset" : 92308
        },
        {
            "buffer" : 0,
            "byteLength" : 16,
            "byteOffset" : 92320
        },
        {
            "buffer" : 0,
            "byteLength" : 12,
            "byteOffset" : 92336
        }
    ],
    "buffers" : [
        {
            "byteLength" : 92348,
            "uri" : "data:application/octet-stream;base64,"
        }
    ]
}
